<?xml version="1.0"?>
<svg xmlns="http://www.w3.org/2000/svg" viewBox="0 0 64 64">
  <path data-name="layer2" d="M44.1 47.9l5.1 7a7 7 0 0 0 12.7-5.4L57.8 28a12 12 0 0 0-11.2-9.9H18A12 12 0 0 0 6.2 28l-4 21.6A7 7 0 0 0 14.9 55l5.1-7 6-3.9h12.1z" fill="#8fa9d8"/>
  <path data-name="opacity" d="M6 49a7 7 0 0 1 .2-1.4l4-21.6a12 12 0 0 1 4.6-7.6A12 12 0 0 0 6.2 28l-4 21.6A7 7 0 0 0 9 58a7 7 0 0 0 4.9-2.1H13A7 7 0 0 1 6 49zm53 7a7 7 0 0 1-5.8-3.1l-5.1-7-6-3.9h-4a5 5 0 0 1 .9-2 5 5 0 0 0-4 2h-5.1l-3.1 2h11.3l6 3.9 5.1 7a7 7 0 0 0 10.8 1z" fill="#000064" opacity=".15"/>
  <path data-name="opacity" d="M16 43a5 5 0 0 1 1-3 5 5 0 0 0 0 10l1.5-.3 1.3-1.9A5 5 0 0 1 16 43z" fill="#000064" opacity=".15"/>
  <circle data-name="layer1" cx="39" cy="29" r="3" fill="#536897"/>
  <circle data-name="layer1" cx="49" cy="31" r="3" fill="#536897"/>
  <circle data-name="opacity" cx="37" cy="31" r="3" fill="#000064" opacity=".15"/>
  <circle data-name="opacity" cx="47" cy="33" r="3" fill="#000064" opacity=".15"/>
  <circle data-name="layer1" cx="21" cy="43" r="5" fill="#536897"/>
  <circle data-name="layer1" cx="43" cy="43" r="5" fill="#536897"/>
  <path data-name="opacity" d="M18 41a4.9 4.9 0 0 1 .6-2.4 5 5 0 1 0 6.7 6.7A5 5 0 0 1 18 41zm22 0a4.9 4.9 0 0 1 .6-2.4 5 5 0 1 0 6.7 6.7A5 5 0 0 1 40 41z" fill="#000064" opacity=".15"/>
  <circle data-name="stroke" cx="21" cy="43" r="5" fill="none" stroke="#2e4369" stroke-linecap="round" stroke-linejoin="round" stroke-width="2"/>
  <circle data-name="stroke" cx="43" cy="43" r="5" fill="none" stroke="#2e4369" stroke-linecap="round" stroke-linejoin="round" stroke-width="2"/>
  <path data-name="stroke" d="M44.1 47.9l5.1 7a7 7 0 0 0 12.7-5.4L57.8 28a12 12 0 0 0-11.2-9.9H18A12 12 0 0 0 6.2 28l-4 21.6A7 7 0 0 0 14.9 55l5.1-7m5.9-4h12.2" fill="none" stroke="#2e4369" stroke-linecap="round" stroke-linejoin="round" stroke-width="2"/>
  <circle data-name="stroke" cx="39" cy="29" r="3" fill="none" stroke="#2e4369" stroke-linecap="round" stroke-linejoin="round" stroke-width="2"/>
  <circle data-name="stroke" cx="49" cy="31" r="3" fill="none" stroke="#2e4369" stroke-linecap="round" stroke-linejoin="round" stroke-width="2"/>
  <path data-name="stroke" fill="none" stroke="#2e4369" stroke-linecap="round" stroke-linejoin="round" stroke-width="2" d="M18 26v8m-4-4h8m10-12V6"/>
</svg>
