<svg width="128" height="128" viewBox="0 0 128 128" xmlns="http://www.w3.org/2000/svg" xmlns:usvg="https://github.com/RazrFalcon/usvg" usvg:version="0.8.0">
    <defs>
        <filter id="filter6017-3" x="-0.1" y="-0.1" width="1.2" height="1.2">
            <feGaussianBlur color-interpolation-filters="sRGB" in="SourceGraphic" stdDeviation="0.80546496 0.80546496" result="result1"/>
        </filter>
        <filter id="filter6031-0" x="-0.1" y="-0.1" width="1.2" height="1.2">
            <feGaussianBlur color-interpolation-filters="sRGB" in="SourceGraphic" stdDeviation="3.4903482 3.4903482" result="result1"/>
        </filter>
        <clipPath id="clipPath9086-1">
            <path transform="matrix(1 0 0 1 0.0000010095461 0)" d="M 54.1 12.5 L 12.9 54.7 C -2.7 70.3 23 69 32.3 74.9 C 36.6 77.7 18.5 81.3 22.2 85 C 25.8 88.7 43.9 92.1 47.5 95.7 C 51.1 99.4 40.2 103.3 43.8 107 C 47.3 110.7 55.7 107.2 57.2 115.6 C 58.3 121.8 72.6 118.7 79 113.4 C 83 110 72.1 110 75.7 106.3 C 84.7 97.2 92.7 102.2 96 93.8 C 97.8 89.3 82.4 86.1 86.5 83.2 C 96.3 76.3 132.3 72.8 115.7 56.2 L 73 12.5 C 67.7 7.5 59 7.5 54.1 12.5 Z M 44.2 77.2 C 45.1 77.2 75 81.2 63.5 84.3 C 59.1 85.5 38.9 77.2 44.2 77.2 Z M 101.4 93.8 C 101.4 95.9 117.7 97.1 116.8 93.3 C 115.5 86.9 103.2 87.4 101.4 93.8 Z M 31.9 104.9 C 35.6 108.1 41.2 104.2 43 99.7 C 39.4 95 26.1 100 31.9 104.9 Z M 99.4 98.2 C 94.8 102.4 100.2 106.8 104.7 103.9 C 105.9 103.1 104.6 99.2 99.4 98.2 Z"/>
        </clipPath>
        <filter id="filter8490-0" x="-0.1" y="-0.1" width="1.2" height="1.2">
            <feGaussianBlur color-interpolation-filters="sRGB" in="SourceGraphic" stdDeviation="2.4163949 2.4163949" result="result1"/>
        </filter>
        <linearGradient id="linearGradient9175-3" x1="82.118591" y1="20" x2="60" y2="40" gradientUnits="userSpaceOnUse">
            <stop offset="0" stop-color="#c0cdf9"/>
            <stop offset="1" stop-color="#07092d" stop-opacity="0.28804347"/>
        </linearGradient>
        <linearGradient id="shinySpecular-0" x1="33" y1="35" x2="58" y2="60" gradientUnits="userSpaceOnUse" gradientTransform="matrix(1.009184 0 0 1.009184 -0.3890738 -0.3831933)">
            <stop offset="0" stop-color="#ffffff"/>
            <stop offset="1" stop-color="#ffffff" stop-opacity="0"/>
        </linearGradient>
        <linearGradient id="IcecapTip-0" x1="60" y1="20" x2="90" y2="50" gradientUnits="userSpaceOnUse">
            <stop offset="0" stop-color="#ffffff"/>
            <stop offset="1" stop-color="#ffffff" stop-opacity="0"/>
        </linearGradient>
        <radialGradient id="radialGradient9177-1" cx="116.31038" cy="250.89737" r="30.599579" fx="116.31038" fy="250.89737" gradientUnits="userSpaceOnUse" gradientTransform="matrix(1.5700516 0 0 1.0509301 -75.500107 -22.095908)">
            <stop offset="0" stop-color="#ffffff"/>
            <stop offset="1" stop-color="#ffffff" stop-opacity="0"/>
        </radialGradient>
        <filter id="filter8732-3" x="-0.078079157" y="-0.11422065" width="1.1561583" height="1.2284414">
            <feGaussianBlur color-interpolation-filters="sRGB" in="SourceGraphic" stdDeviation="1.9579068 1.9579068" result="result1"/>
        </filter>
        <radialGradient id="radialGradient8574-0" cx="132.44434" cy="251.99396" r="30.599579" fx="132.44434" fy="251.99396" gradientUnits="userSpaceOnUse" gradientTransform="matrix(2.0032532 0 0 1.340898 -132.8752 -95.166065)">
            <stop offset="0" stop-color="#ffffff"/>
            <stop offset="1" stop-color="#ffffff" stop-opacity="0"/>
        </radialGradient>
        <radialGradient id="radialGradient8744-9" cx="210.25" cy="168.5" r="34.25" fx="210.25" fy="168.5" gradientUnits="userSpaceOnUse" gradientTransform="matrix(1 0 0 0.4233577 0 97.164234)">
            <stop offset="0" stop-color="#ffffff"/>
            <stop offset="1" stop-color="#ffffff" stop-opacity="0"/>
        </radialGradient>
        <filter id="filter8764-9" x="-0.074262142" y="-0.1754123" width="1.1485243" height="1.3508246">
            <feGaussianBlur color-interpolation-filters="sRGB" in="SourceGraphic" stdDeviation="2.1195652 2.1195652" result="result1"/>
        </filter>
        <radialGradient id="radialGradient8768-6" cx="217.5" cy="182.08189" r="34.25" fx="217.5" fy="182.08189" gradientUnits="userSpaceOnUse" gradientTransform="matrix(1 0 0 0.4233577 0 97.164234)">
            <stop offset="0" stop-color="#ffffff"/>
            <stop offset="1" stop-color="#ffffff" stop-opacity="0"/>
        </radialGradient>
        <linearGradient id="linearGradient8912-9" x1="231.625" y1="195.1875" x2="231.75" y2="201.5" gradientUnits="userSpaceOnUse">
            <stop offset="0" stop-color="#ffffff"/>
            <stop offset="1" stop-color="#ffffff" stop-opacity="0"/>
        </linearGradient>
        <filter id="filter8906-3" x="-0.085441329" y="-0.27823201" width="1.1708827" height="1.556464">
            <feGaussianBlur color-interpolation-filters="sRGB" in="SourceGraphic" stdDeviation="0.56515877 0.56515877" result="result1"/>
        </filter>
        <linearGradient id="linearGradient8910-3" x1="231.37646" y1="195.62132" x2="231.37646" y2="200.07138" gradientUnits="userSpaceOnUse">
            <stop offset="0" stop-color="#ffffff"/>
            <stop offset="1" stop-color="#ffffff" stop-opacity="0"/>
        </linearGradient>
        <filter id="filter8980-1" x="-0.069862768" y="-0.47285891" width="1.1397254" height="1.9457178">
            <feGaussianBlur color-interpolation-filters="sRGB" in="SourceGraphic" stdDeviation="0.82052366 0.82052366" result="result1"/>
        </filter>
        <radialGradient id="radialGradient8922-9" cx="228.21875" cy="204.83229" r="14.09375" fx="228.21875" fy="204.83229" gradientUnits="userSpaceOnUse" gradientTransform="matrix(1 0 0 0.1477455 0 174.56924)">
            <stop offset="0" stop-color="#ffffff"/>
            <stop offset="1" stop-color="#ffffff" stop-opacity="0"/>
        </radialGradient>
        <linearGradient id="linearGradient8990-4" x1="231.625" y1="195.1875" x2="231.75" y2="201.5" gradientUnits="userSpaceOnUse">
            <stop offset="0" stop-color="#ffffff"/>
            <stop offset="1" stop-color="#ffffff" stop-opacity="0"/>
        </linearGradient>
        <linearGradient id="linearGradient8992-2" x1="231.37646" y1="195.62132" x2="231.37646" y2="200.07138" gradientUnits="userSpaceOnUse">
            <stop offset="0" stop-color="#ffffff"/>
            <stop offset="1" stop-color="#ffffff" stop-opacity="0"/>
        </linearGradient>
        <radialGradient id="radialGradient8994-0" cx="228.21875" cy="204.83229" r="14.09375" fx="228.21875" fy="204.83229" gradientUnits="userSpaceOnUse" gradientTransform="matrix(1 0 0 0.1477455 0 174.56924)">
            <stop offset="0" stop-color="#ffffff"/>
            <stop offset="1" stop-color="#ffffff" stop-opacity="0"/>
        </radialGradient>
        <radialGradient id="radialGradient9004-6" cx="89.875" cy="187.86935" r="22.75" fx="89.875" fy="187.86935" gradientUnits="userSpaceOnUse" gradientTransform="matrix(1 0 0 0.4070844 0 115.76014)">
            <stop offset="0" stop-color="#ffffff" stop-opacity="0.33004925"/>
            <stop offset="1" stop-color="#ffffff" stop-opacity="0"/>
        </radialGradient>
        <linearGradient id="linearGradient9023-6" x1="231.625" y1="195.1875" x2="231.75" y2="201.5" gradientUnits="userSpaceOnUse">
            <stop offset="0" stop-color="#ffffff"/>
            <stop offset="1" stop-color="#ffffff" stop-opacity="0"/>
        </linearGradient>
        <linearGradient id="linearGradient9025-1" x1="231.37646" y1="195.62132" x2="231.37646" y2="200.07138" gradientUnits="userSpaceOnUse">
            <stop offset="0" stop-color="#ffffff"/>
            <stop offset="1" stop-color="#ffffff" stop-opacity="0"/>
        </linearGradient>
        <filter id="filter9068-2" x="-0.076179281" y="-0.1655701" width="1.1523587" height="1.3311402">
            <feGaussianBlur color-interpolation-filters="sRGB" in="SourceGraphic" stdDeviation="0.66458488 0.66458488" result="result1"/>
        </filter>
        <radialGradient id="radialGradient9046-1" cx="90.28125" cy="230.83626" r="10.46875" fx="90.28125" fy="230.83626" gradientUnits="userSpaceOnUse" gradientTransform="matrix(1.1850746 -0.3283582 0.1228557 0.4433973 -45.068314 152.92161)">
            <stop offset="0" stop-color="#ffffff"/>
            <stop offset="1" stop-color="#ffffff" stop-opacity="0"/>
        </radialGradient>
        <filter id="filter9298-4" x="-0.1" y="-0.1" width="1.2" height="1.2">
            <feGaussianBlur color-interpolation-filters="sRGB" in="SourceGraphic" stdDeviation="0.32610678 0.32610678" result="result1"/>
        </filter>
        <radialGradient id="radialGradient11553-3" cx="68.39994" cy="21.225746" r="54.783398" fx="68.39994" fy="21.225746" gradientUnits="userSpaceOnUse" gradientTransform="matrix(1.7221535 0 0 1.6949765 -49.39526 -14.078057)">
            <stop offset="0" stop-color="#ffffff"/>
            <stop offset="1" stop-color="#ffffff" stop-opacity="0"/>
        </radialGradient>
        <filter id="filter5983-8" x="-0.082508981" y="-0.12233575" width="1.165018" height="1.2446715">
            <feGaussianBlur color-interpolation-filters="sRGB" in="SourceGraphic" stdDeviation="3.6868363 3.6868363" result="result1"/>
        </filter>
        <linearGradient id="linearGradient5905-4" x1="95.5" y1="208.16444" x2="153.5" y2="223.5" gradientUnits="userSpaceOnUse">
            <stop offset="0" stop-color="#ffffff"/>
            <stop offset="1" stop-color="#ffffff" stop-opacity="0"/>
        </linearGradient>
        <linearGradient id="linearGradient5801-2" x1="57.225197" y1="76.246338" x2="53.63158" y2="84.480316" gradientUnits="userSpaceOnUse" gradientTransform="matrix(0.8852575 0 0 0.8852575 5.1772151 9.2293372)">
            <stop offset="0" stop-color="#eeeeec"/>
            <stop offset="1" stop-color="#eeeeec" stop-opacity="0"/>
        </linearGradient>
        <filter id="filter5845-5" x="-0.1" y="-0.1" width="1.2" height="1.2">
            <feGaussianBlur color-interpolation-filters="sRGB" in="SourceGraphic" stdDeviation="1.2409356 1.2409356" result="result1"/>
        </filter>
        <radialGradient id="radialGradient5811-3" cx="181.22731" cy="214.55121" r="22.466398" fx="181.22731" fy="214.55121" gradientUnits="userSpaceOnUse" gradientTransform="matrix(1.3515234 0 0 1.7175707 -63.705646 -153.95568)">
            <stop offset="0" stop-color="#ffffff"/>
            <stop offset="1" stop-color="#ffffff" stop-opacity="0"/>
        </radialGradient>
        <linearGradient id="linearGradient5822-7" x1="73.712105" y1="180.47572" x2="82.754066" y2="187.65974" gradientUnits="userSpaceOnUse" gradientTransform="matrix(0.4927913 0 0 0.4927913 -6.0003885 -9.7225182)">
            <stop offset="0" stop-color="#ffffff"/>
            <stop offset="1" stop-color="#ffffff" stop-opacity="0"/>
        </linearGradient>
        <filter id="filter10997-7-2" x="-0.1" y="-0.1" width="1.2" height="1.2">
            <feGaussianBlur color-interpolation-filters="sRGB" in="SourceGraphic" stdDeviation="2.7696726 2.7696726" result="result1"/>
        </filter>
        <linearGradient id="linearGradient1539" x1="180.81293" y1="217.5" x2="153.70045" y2="144.5" gradientUnits="userSpaceOnUse" gradientTransform="matrix(1 0 0 1 -130.16572 -83.352786)">
            <stop offset="0" stop-color="#729fcf"/>
            <stop offset="1" stop-color="#729fcf" stop-opacity="0"/>
        </linearGradient>
    </defs>
    <g id="g6035" opacity="0.78325124" transform="matrix(0.9939405 0 0 0.9939405 0.38937147673226824 -0.9597279944486499)">
        <g filter="url(#filter6017-3)">
            <path id="path5987" d="M 54.1 12.988307 L 12.9 55.188307 C -2.7 70.788307 23 69.488307 32.3 75.388307 C 36.6 78.188307 18.5 81.788307 22.2 85.488307 C 25.8 89.188307 43.9 92.588307 47.5 96.188307 C 51.1 99.888303 40.2 103.78831 43.8 107.48831 C 47.3 111.18831 55.7 107.68831 57.2 116.08831 C 58.3 122.28831 72.6 119.18831 79 113.88831 C 83 110.48831 72.1 110.48831 75.7 106.78831 C 84.7 97.688307 92.7 102.68831 96 94.288307 C 97.8 89.788307 82.4 86.588307 86.5 83.688307 C 96.3 76.788307 132.3 73.288307 115.7 56.688307 L 73 12.988307 C 67.7 7.9883067 59 7.9883067 54.1 12.988307 Z M 101.4 94.288307 C 101.4 96.388307 117.7 97.588307 116.8 93.788307 C 115.5 87.388307 103.2 87.888307 101.4 94.288307 Z M 31.9 105.38831 C 35.6 108.58831 41.2 104.68831 43 100.18831 C 39.4 95.488307 26.1 100.48831 31.9 105.38831 Z M 99.4 98.688307 C 94.8 102.88831 100.2 107.28831 104.7 104.38831 C 105.9 103.58831 104.6 99.688303 99.4 98.688307 Z"/>
        </g>
        <g filter="url(#filter6031-0)" opacity="0.57635468">
            <path id="path6021" d="M 54.1 13.964921 L 12.9 56.164921 C -2.7 71.764921 23 70.464921 32.3 76.364921 C 36.6 79.164921 18.5 82.764921 22.2 86.464921 C 25.8 90.164921 43.9 93.564921 47.5 97.164921 C 51.1 100.86492 40.2 104.76493 43.8 108.46493 C 47.3 112.16493 55.7 108.66493 57.2 117.06493 C 58.3 123.26493 72.6 120.16493 79 114.86493 C 83 111.46493 72.1 111.46493 75.7 107.76493 C 84.7 98.664921 92.7 103.66493 96 95.264921 C 97.8 90.764921 82.4 87.564921 86.5 84.664921 C 96.3 77.764921 132.3 74.264921 115.7 57.664921 L 73 13.964921 C 67.7 8.9649201 59 8.9649201 54.1 13.964921 Z M 101.4 95.264921 C 101.4 97.364921 117.7 98.564921 116.8 94.764921 C 115.5 88.364921 103.2 88.864921 101.4 95.264921 Z M 31.9 106.36493 C 35.6 109.56493 41.2 105.66493 43 101.16493 C 39.4 96.464921 26.1 101.46493 31.9 106.36493 Z M 99.4 99.664921 C 94.8 103.86493 100.2 108.26493 104.7 105.36493 C 105.9 104.56493 104.6 100.66492 99.4 99.664921 Z"/>
        </g>
    </g>
    <path id="use7631" transform="matrix(0.9939405 0 0 0.9939405 0.38937111 -1.4450758)" d="M 54.1 12.5 L 12.9 54.7 C -2.7 70.3 23 69 32.3 74.9 C 36.6 77.7 18.5 81.3 22.2 85 C 25.8 88.7 43.9 92.1 47.5 95.7 C 51.1 99.4 40.2 103.3 43.8 107 C 47.3 110.7 55.7 107.2 57.2 115.6 C 58.3 121.8 72.6 118.7 79 113.4 C 83 110 72.1 110 75.7 106.3 C 84.7 97.2 92.7 102.2 96 93.8 C 97.8 89.3 82.4 86.1 86.5 83.2 C 96.3 76.3 132.3 72.8 115.7 56.2 L 73 12.5 C 67.7 7.5 59 7.5 54.1 12.5 Z M 101.4 93.8 C 101.4 95.9 117.7 97.1 116.8 93.3 C 115.5 86.9 103.2 87.4 101.4 93.8 Z M 31.9 104.9 C 35.6 108.1 41.2 104.2 43 99.7 C 39.4 95 26.1 100 31.9 104.9 Z M 99.4 98.2 C 94.8 102.4 100.2 106.8 104.7 103.9 C 105.9 103.1 104.6 99.2 99.4 98.2 Z"/>
    <path id="use7639" fill="none" visibility="hidden" transform="matrix(0.9939405 0 0 0.9939405 0.38937111 -1.4450758)" d="M 54.1 12.5 L 12.9 54.7 C -2.7 70.3 23 69 32.3 74.9 C 36.6 77.7 18.5 81.3 22.2 85 C 25.8 88.7 43.9 92.1 47.5 95.7 C 51.1 99.4 40.2 103.3 43.8 107 C 47.3 110.7 55.7 107.2 57.2 115.6 C 58.3 121.8 72.6 118.7 79 113.4 C 83 110 72.1 110 75.7 106.3 C 84.7 97.2 92.7 102.2 96 93.8 C 97.8 89.3 82.4 86.1 86.5 83.2 C 96.3 76.3 132.3 72.8 115.7 56.2 L 73 12.5 C 67.7 7.5 59 7.5 54.1 12.5 Z M 101.4 93.8 C 101.4 95.9 117.7 97.1 116.8 93.3 C 115.5 86.9 103.2 87.4 101.4 93.8 Z M 31.9 104.9 C 35.6 108.1 41.2 104.2 43 99.7 C 39.4 95 26.1 100 31.9 104.9 Z M 99.4 98.2 C 94.8 102.4 100.2 106.8 104.7 103.9 C 105.9 103.1 104.6 99.2 99.4 98.2 Z"/>
    <g clip-path="url(#clipPath9086-1)" filter="url(#filter8490-0)" opacity="0.66995072" transform="matrix(0.9845419974201 0 0 0.9845419974201 0.99085768236675 -0.8446005620919999)">
        <path fill="url(#linearGradient9175-3)" d="M 54.1 12.5 L 12.9 54.7 C -2.7 70.3 23 69 32.3 74.9 C 36.6 77.7 18.5 81.3 22.2 85 C 25.8 88.7 43.9 92.1 47.5 95.7 C 51.1 99.4 40.2 103.3 43.8 107 C 47.3 110.7 55.7 107.2 57.2 115.6 C 58.3 121.8 72.6 118.7 79 113.4 C 83 110 72.1 110 75.7 106.3 C 84.7 97.2 92.7 102.2 96 93.8 C 97.8 89.3 82.4 86.1 86.5 83.2 C 96.3 76.3 132.3 72.8 115.7 56.2 L 73 12.5 C 67.7 7.5 59 7.5 54.1 12.5 Z M 44.2 77.2 C 45.1 77.2 75 81.2 63.5 84.3 C 59.1 85.5 38.9 77.2 44.2 77.2 Z M 101.4 93.8 C 101.4 95.9 117.7 97.1 116.8 93.3 C 115.5 86.9 103.2 87.4 101.4 93.8 Z M 31.9 104.9 C 35.6 108.1 41.2 104.2 43 99.7 C 39.4 95 26.1 100 31.9 104.9 Z M 99.4 98.2 C 94.8 102.4 100.2 106.8 104.7 103.9 C 105.9 103.1 104.6 99.2 99.4 98.2 Z"/>
    </g>
    <g opacity="0.50526315" transform="matrix(0.9939405 0 0 0.9939405 0.38937111 -1.4450758)">
        <path id="path7643" fill="url(#shinySpecular-0)" d="M 16.565217 57.039374 C 5.3632748 68.140398 25.042362 65.011927 40.180121 70.966113 L 71.464824 15.965587 C 66.72166 11.121504 60.666556 11.525177 56.327065 15.965587 L 16.565217 57.039374 Z"/>
    </g>
    <path id="icecap" fill="url(#IcecapTip-0)" transform="matrix(0.9939405 0 0 0.9939405 0.38937111 -1.4450758)" d="M 70.5 15.5 L 86.8 32.1 C 88.3 33.6 88.3 36.7 87.4 37.6 L 79.3 31 L 77.7 40.7 L 71 37.1 L 60.1 44 L 56.5 29.5 L 50.7 42.1 L 36.2 42 C 33.4 42 33.8 39.1 36.7 36.2 C 42.4 29.9 53.5 19.2 57 15.5 C 60.6 11.8 66.9 11.9 70.5 15.5 Z"/>
    <g opacity="0.21674876" transform="matrix(0.5264389955202 0 0 0.5264389955202 -11.261855867648999 -15.2252249285395)">
        <path id="path8566" fill="url(#radialGradient9177-1)" fill-rule="evenodd" d="M 113 203.5 C 113 203.5 116.34046 208.60071 116 211 C 115.33183 215.70868 105.19055 218.05842 107.4375 222.25 C 109.65741 226.39114 117.65889 224.04405 124.375 228.375 C 131.0625 232.6875 129.26449 241.47649 134.125 243.6875 C 143.60425 247.99955 168.5 236.25 167.25 236.5 C 166 236.75 142.67986 241.59545 137.42986 237.34545 C 131.44394 232.4997 129.72769 229.11517 125.3125 226.25 C 121.17499 223.56502 115.36283 222.46964 114.01004 220.27135 C 112.65725 218.07306 116.71924 215.23666 117 211 C 117.16862 208.45558 113 203.5 113 203.5 Z"/>
    </g>
    <g filter="url(#filter8732-3)" opacity="0.27586209" transform="matrix(0.5264389955202 0 0 0.5264389955202 -11.261855867648999 -15.2252249285395)">
        <path id="path8718" fill="url(#radialGradient8574-0)" fill-rule="evenodd" d="M 113 203.5 C 113 203.5 116.34046 208.60071 116 211 C 115.33183 215.70868 105.19055 218.05842 107.4375 222.25 C 109.65741 226.39114 117.65889 224.04405 124.375 228.375 C 131.0625 232.6875 129.26449 241.47649 134.125 243.6875 C 143.60425 247.99955 168.5 236.25 167.25 236.5 C 125.91041 236.65736 133.62515 226.0054 117.6875 219 C 115.38445 217.9877 116.71924 215.23666 117 211 C 117.16862 208.45558 113 203.5 113 203.5 Z"/>
    </g>
    <g opacity="0.45320195" transform="matrix(0.5264389955202 0 0 0.5264389955202 -11.261855867648999 -15.2252249285395)">
        <path id="path8736" fill="url(#radialGradient8744-9)" fill-rule="evenodd" d="M 183.25 181.75 C 220.35371 168.09541 232.27363 166.21942 244.5 154 C 230.33931 165.95366 200.40153 172.3658 176 183 L 183.25 181.75 Z"/>
    </g>
    <g filter="url(#filter8764-9)" opacity="0.51231528" transform="matrix(0.5264389955202 0 0 0.5264389955202 -11.261855867648999 -16.146493468882)">
        <path id="path8746" fill="url(#radialGradient8768-6)" fill-rule="evenodd" d="M 183.25 181.75 C 244.35371 160.09541 234.02363 160.21942 244.5 154 C 225.07231 161.43666 188.76554 162.22981 176 183 L 183.25 181.75 Z"/>
    </g>
    <g opacity="0.2857143" transform="matrix(0.5264389955202 0 0 0.5264389955202 -11.919904115079 -16.146493468882)">
        <path id="path8864" fill="url(#linearGradient8912-9)" d="M 237.875 199.0625 C 237.875 200.40869407771 234.32126020178 201.5 229.9375 201.5 C 225.55373979822 201.5 222 200.40869407771 222 199.0625 C 222 197.71630592229 225.55373979822 196.625 229.9375 196.625 C 234.32126020178 196.625 237.875 197.71630592229 237.875 199.0625 Z"/>
    </g>
    <g filter="url(#filter8906-3)" opacity="0.62068942" transform="matrix(0.7088272760583 0 0 1.13386853692455 -53.857816092831 -135.58233585631)">
        <path id="path8874" fill="url(#linearGradient8910-3)" d="M 237.875 199.0625 C 237.875 200.40869407771 234.32126020178 201.5 229.9375 201.5 C 225.55373979822 201.5 222 200.40869407771 222 199.0625 C 222 197.71630592229 225.55373979822 196.625 229.9375 196.625 C 234.32126020178 196.625 237.875 197.71630592229 237.875 199.0625 Z"/>
    </g>
    <g filter="url(#filter8980-1)" transform="matrix(0.5264389955202 0 0 0.5264389955202 -11.261855867648999 -15.597473536718498)">
        <path id="path8914" fill="url(#radialGradient8922-9)" fill-rule="evenodd" d="M 214.125 203.75 C 217.89448 207.23424 238.88076 209.02219 242.3125 202.75 C 235.57587 207.5339 220.59573 205.85264 214.125 203.75 Z"/>
    </g>
    <g opacity="0.2857143" transform="matrix(0.2030139374298 -0.10293297515025 0.2380654479504 0.4695347091666 6.10929542666775 28.657957819977497)">
        <path id="path8984" fill="url(#linearGradient8990-4)" d="M 236.44594 199.0625 C 236.44831837325 200.1643717531 235.2083371241 201.1830254506 233.19364195848 201.73428671262 C 231.17894679286 202.28554797463 228.69605320714 202.28554797463 226.68135804152 201.73428671262 C 224.6666628759 201.1830254506 223.42668162675 200.1643717531 223.42906 199.0625 C 223.42668162675 197.9606282469 224.6666628759 196.9419745494 226.68135804152 196.39071328738 C 228.69605320714 195.83945202537 231.17894679286 195.83945202537 233.19364195848 196.39071328738 C 235.2083371241 196.9419745494 236.44831837325 197.9606282469 236.44594 199.0625 Z"/>
    </g>
    <g filter="url(#filter8906-3)" opacity="0.62068942" transform="matrix(0.27334944115395 -0.13859476513785 0.5127564105972 1.0113054356873998 -64.568115380988 -70.3257836022175)">
        <path id="path8986" fill="url(#linearGradient8992-2)" d="M 236.99305 199.0625 C 236.99469439458 199.82739758278 235.65027390175 200.53440558399 233.46660378109 200.91699842956 C 231.28293366042 201.29959127513 228.59206633958 201.29959127513 226.40839621891 200.91699842956 C 224.22472609825 200.53440558399 222.88030560542 199.82739758278 222.88195 199.0625 C 222.88030560542 198.29760241722 224.22472609825 197.59059441601 226.40839621891 197.20800157044 C 228.59206633958 196.82540872487 231.28293366042 196.82540872487 233.46660378109 197.20800157044 C 235.65027390175 197.59059441601 236.99469439458 198.29760241722 236.99305 199.0625 Z"/>
    </g>
    <g filter="url(#filter8980-1)" transform="matrix(0.2030139374298 -0.10293297515025 0.2380654479504 0.4695347091666 6.6113400411024 29.018965955042)">
        <path id="path8988" fill="url(#radialGradient8994-0)" fill-rule="evenodd" d="M 217.05754 201.94027 C 220.82702 205.42451 244.02876 210.8515 242.3125 202.75 C 238.99513 208.07326 223.52827 204.04291 217.05754 201.94027 Z"/>
    </g>
    <path id="path8996" fill="url(#radialGradient9004-6)" fill-rule="evenodd" transform="matrix(0.5264389955202 0 0 0.5264389955202 -11.261855867648999 -15.2252249285395)" d="M 68.25 186 C 68.25 185.37943 107.09622 197.83854 113.75 204.5 C 108.27878 199.16146 80.590291 186.88391 76.375 186.75 C 72.159709 186.61609 68.75 186.25 68.25 186 Z"/>
    <g opacity="0.2857143" transform="matrix(0.4627476683593895 -0.10160056773551697 0.12309938872237 0.366364426932875 -94.55022427914969 47.98103326802722)">
        <path id="path9006" fill="url(#linearGradient9023-6)" d="M 237.875 199.0625 C 237.875 200.40869407771 234.32126020178 201.5 229.9375 201.5 C 225.55373979822 201.5 222 200.40869407771 222 199.0625 C 222 197.71630592229 225.55373979822 196.625 229.9375 196.625 C 234.32126020178 196.625 237.875 197.71630592229 237.875 199.0625 Z"/>
    </g>
    <g filter="url(#filter8906-3)" opacity="0.62068942" transform="matrix(0.6230696662989313 -0.13680075808742007 0.2651371288500689 0.7890925639676336 -159.3424386901348 -27.044048161916834)">
        <path id="path9008" fill="url(#linearGradient9025-1)" d="M 237.875 199.0625 C 237.875 200.40869407771 234.32126020178 201.5 229.9375 201.5 C 225.55373979822 201.5 222 200.40869407771 222 199.0625 C 222 197.71630592229 225.55373979822 196.625 229.9375 196.625 C 234.32126020178 196.625 237.875 197.71630592229 237.875 199.0625 Z"/>
    </g>
    <g filter="url(#filter9068-2)" opacity="0.61576353" transform="matrix(0.5264389955202 0 0 0.5264389955202 -11.163148630534499 -15.784565938855)">
        <path id="path9038" fill="url(#radialGradient9046-1)" fill-rule="evenodd" d="M 80.5 220.0625 C 80.5 220.0625 82.60339 225.71328 88.375 226 C 94.21387 226.29006 100.87824 218.99302 101.4375 216.375 C 100.4375 218.625 94.847166 225.40828 87.625 225.3125 C 83.525138 225.2581 80.5 220.0625 80.5 220.0625 Z"/>
    </g>
    <g filter="url(#filter9298-4)" transform="matrix(0.9939405 0 0 0.9939405 0.38937111 -1.4450758)">
        <path id="87235" fill="none" stroke="url(#radialGradient11553-3)" stroke-width="0.48830673" d="M 63.40625 10.21875 C 60.308069 10.21875 57.271649 11.340792 55.125 13.53125 L 13.9375 55.71875 C 10.17188 59.48437 9.2672587 61.94944 9.5 63.34375 C 9.6163706 64.040905 9.9585994 64.646777 10.6875 65.28125 C 11.416401 65.915723 12.518995 66.537639 13.84375 67.09375 C 16.493261 68.205972 20.061711 69.101835 23.5625 70.0625 C 27.063289 71.023165 30.492312 72.037126 33.09375 73.6875 C 33.490373 73.945766 33.862838 74.263968 34.125 74.71875 C 34.387162 75.173532 34.479216 75.774838 34.375 76.28125 C 34.166569 77.294074 33.54298 77.828235 32.90625 78.3125 C 31.63279 79.28103 29.882993 80.085729 28.125 80.9375 C 26.367007 81.789271 24.600075 82.660742 23.71875 83.375 C 23.278087 83.732129 23.118638 84.053133 23.125 84.03125 C 23.1314 84.00937 23.008149 83.758149 23.21875 83.96875 C 23.770514 84.53584 25.492825 85.506915 27.6875 86.375 C 29.882175 87.243085 32.56815 88.120624 35.28125 89 C 37.99435 89.879376 40.73875 90.749959 43.0625 91.65625 C 45.38625 92.562541 47.280194 93.405194 48.53125 94.65625 C 49.153931 95.296228 49.593882 96.092206 49.6875 96.90625 C 49.78112 97.720294 49.560691 98.484282 49.25 99.125 C 48.628618 100.40644 47.629687 101.39219 46.71875 102.34375 C 45.807812 103.29531 44.982524 104.20409 44.6875 104.8125 C 44.539988 105.1167 44.517153 105.31492 44.53125 105.4375 C 44.54535 105.56008 44.56643 105.68373 44.84375 105.96875 C 44.85432409226 105.97900804242 44.86474195758 105.98942590774 44.875 106 C 46.068594 107.2618 48.662002 107.43924 51.59375 108.125 C 53.059624 108.46788 54.592659 108.98696 55.90625 110.125 C 57.219841 111.26304 58.205685 112.99559 58.625 115.34375 C 58.801459 116.33834 59.327722 116.82255 60.59375 117.21875 C 61.859778 117.61495 63.788103 117.68429 65.90625 117.375 C 70.142545 116.75641 75.166285 114.67968 78.0625 112.28125 C 78.24249 112.12826 78.192456 112.1687 78.25 112.09375 C 78.055195 111.95436 77.598356 111.65723 76.84375 111.28125 C 75.952223 110.83705 74.899042 110.42169 74.09375 109.40625 C 73.691104 108.89853 73.413873 108.09691 73.53125 107.3125 C 73.648627 106.52809 74.078082 105.87548 74.65625 105.28125 C 79.402001 100.48277 84.078187 99.337114 87.59375 98.40625 C 89.351532 97.940818 90.823042 97.515017 91.9375 96.8125 C 93.051958 96.109983 93.92258 95.148772 94.65625 93.28125 C 94.73712 93.079076 94.7348 93.020404 94.625 92.78125 C 94.515197 92.542096 94.220541 92.159521 93.75 91.75 C 92.808918 90.930959 91.239577 90.050804 89.6875 89.1875 C 88.135423 88.324196 86.627034 87.519262 85.53125 86.5 C 84.983358 85.990369 84.409233 85.348367 84.34375 84.375 C 84.27827 83.401633 84.916318 82.523367 85.65625 82 C 88.401968 80.06679 92.552528 78.595094 97.0625 77.03125 C 101.57247 75.467406 106.42363 73.849125 110.375 72 C 114.32637 70.150875 117.23229 68.021331 118.15625 65.875 C 118.61823 64.801835 118.70288 63.716394 118.21875 62.3125 C 117.73462 60.908606 116.62917 59.191669 114.65625 57.21875 L 72 13.5625 C 71.98929 13.5524 71.97949 13.54131 71.96875 13.53125 C 69.611028 11.323512 66.490379 10.21875 63.40625 10.21875 Z M 109.34375 90.21875 C 106.70853 90.31388 104.28423 91.520143 103.25 93.40625 C 103.54381 93.516774 103.80838 93.641219 104.28125 93.75 C 105.65687 94.066455 107.57668 94.270736 109.46875 94.3125 C 111.36082 94.35426 113.2529 94.195028 114.40625 93.875 C 114.91112 93.73491 115.17861 93.593222 115.3125 93.5 C 115.0567 92.408902 114.44763 91.637874 113.40625 91.0625 C 112.32763 90.466549 110.84956 90.164389 109.34375 90.21875 Z M 38.84375 99.28125 C 36.753878 99.135902 34.127202 99.967801 32.84375 101 C 32.202024 101.5161 31.930481 101.99441 31.90625 102.3125 C 31.88202 102.63059 31.98351 103.05449 32.84375 103.78125 C 32.84386137999 103.79164970179 32.84386137999 103.80205029821 32.84375 103.81245 C 34.196559 104.98245 35.726006 104.86047 37.46875 103.90615 C 38.929701 103.10618 40.225951 101.6054 41.09375 100.03115 C 40.508718 99.653809 39.809218 99.348297 38.84375 99.28115 Z M 99.84375 99.90625 C 99.396447 100.47485 99.152848 101.00422 99.125 101.375 C 99.08656 101.88676 99.231611 102.28223 99.625 102.65625 C 100.36229 103.35724 101.96412 103.65903 103.59375 102.78125 C 103.56155 102.59215 103.50045 102.30534 103.25 101.9375 C 102.7501 101.20336 101.5814 100.4124 99.84375 99.90625 Z"/>
    </g>
    <g filter="url(#filter5983-8)" opacity="0.32512315" transform="matrix(0.48534780555135 0 0 0.48534780555135 -5.3858219639286 -9.10264398440005)">
        <path id="path5897" fill="url(#linearGradient5905-4)" fill-rule="evenodd" d="M 95.5 172 C 90.409394 173.50191 73.907982 179.73713 76.25 184.5 C 78.493595 189.06272 116.86138 190.90132 122.75 204.5 C 125.3179 210.43009 116.85762 214.90326 119 221 C 120.64973 225.69477 133.41196 237.49084 141.48603 243.06781 C 147.81901 247.44216 156.13699 239.54537 152.75 233 C 147.35411 222.57241 171.19266 209.80088 182 204 C 188.30524 200.61564 169 184 169 184 C 169 184 95.5 172 95.5 172 Z"/>
    </g>
    <path id="path5783" fill="url(#linearGradient5801-2)" fill-rule="evenodd" transform="matrix(0.9939405 0 0 0.9939405 0.38937111 -1.4450758)" d="M 41.742167 78.533037 C 43.9741 80.172263 48.378924 79.183575 51.024291 80.374796 C 57.373809 83.234014 65.179232 86.420223 63.742859 80.779351 C 63.742859 80.779351 62.127088 82.121393 62.127088 82.121393 C 62.127088 82.121393 62.095558 79.563848 62.095558 79.563848 C 62.095558 79.563848 58.343581 80.480142 58.343581 80.480142 C 58.343581 80.480142 55.437408 78.147383 54.105055 77.378147 C 53.826765 77.217478 52.39736 78.670962 52.39736 78.670962 C 52.39736 78.670962 52.14039 77.127158 52.14039 77.127158 C 50.283018 76.92952 48.444231 76.842353 46.82524 76.855337 C 42.944298 76.886457 40.326181 77.493078 41.742166 78.533037 Z"/>
    <g filter="url(#filter5845-5)" opacity="0.47783251" transform="matrix(0.48534780555135 0 0 0.48534780555135 -5.3858219639286 -9.10264398440005)">
        <path id="path5803" fill="url(#radialGradient5811-3)" fill-rule="evenodd" d="M 182.75 187.25 C 180.99019 193.7283 204.37776 202.52989 202.625 207 C 198.76605 216.84158 177.64904 210.13755 161.5 230.75 C 159.18682 233.70251 164.75 244.25 164 243 C 163.25 241.75 157.5351 233.03715 159 228.75 C 163.59417 215.30475 208.0128 210.29251 199.875 203.875 C 195.19512 200.18442 178.36954 189.98779 182.75 187.25 Z"/>
    </g>
    <g opacity="0.58620689" transform="matrix(0.48534780555135 0 0 0.48534780555135 -5.93183830729515 -9.4059863752939)">
        <path id="path6041" fill="#ffffff" d="M 236.5 201.1875 C 236.5 201.7743025467 235.35272967144 202.25 233.9375 202.25 C 232.52227032856 202.25 231.375 201.7743025467 231.375 201.1875 C 231.375 200.6006974533 232.52227032856 200.125 233.9375 200.125 C 235.35272967144 200.125 236.5 200.6006974533 236.5 201.1875 Z"/>
    </g>
    <g opacity="0.58620689" transform="matrix(0.30778152795495 0 0 0.48534780555135 27.751005509641498 0.11896501683395022)">
        <path id="path6043" fill="#ffffff" d="M 236.5 201.1875 C 236.5 201.7743025467 235.35272967144 202.25 233.9375 202.25 C 232.52227032856 202.25 231.375 201.7743025467 231.375 201.1875 C 231.375 200.6006974533 232.52227032856 200.125 233.9375 200.125 C 235.35272967144 200.125 236.5 200.6006974533 236.5 201.1875 Z"/>
    </g>
    <g opacity="0.58620689" transform="matrix(0.54453656475015 0 0 0.48534780555135 -91.1547684091365 -0.33604195980249973)">
        <path id="path6045" fill="#ffffff" d="M 236.5 201.1875 C 236.5 201.7743025467 235.35272967144 202.25 233.9375 202.25 C 232.52227032856 202.25 231.375 201.7743025467 231.375 201.1875 C 231.375 200.6006974533 232.52227032856 200.125 233.9375 200.125 C 235.35272967144 200.125 236.5 200.6006974533 236.5 201.1875 Z"/>
    </g>
    <g opacity="0.25123153" transform="matrix(0.9939405 0 0 0.9939405 0.38937111 -1.4450758)">
        <path id="path5049" fill="url(#linearGradient5822-7)" d="M 36.672282 76.528654 C 29.519294 80.952761 18.398251 82.562883 30.568448 85.501289 C 29.118736 82.273189 33.707029 82.629268 36.672282 76.528654 Z"/>
    </g>
    <g filter="url(#filter10997-7-2)" opacity="0.36315792" transform="matrix(0.48534784530897 0 0 0.48534784530897 57.7898295793785 31.352452988118504)">
        <path id="path10207" fill="url(#linearGradient1539)" d="M 8.8342799 171.64721 C 8.8342799 171.64721 31.42606 169.51926 36.6523 163.00076 C 39.70985 159.18718 24.50084 154.73696 27.78403 151.00076 C 40.13411 136.94666 50.51479 137.53347 64.83428 131.64721 C 79.15377 125.76095 73.86972 122.87815 69.23809 120.29366 C 61.30559 115.86726 43.65087 111.15129 49.49113 100.64721 C 55.36801 90.077274 106.83428 75.397214 106.83428 75.397214 C 122.43047 70.068784 120.47337 60.432744 112.83428 52.397214 L 66.83428 6.6472143 C 66.83428 6.6472143 69.11724 50.035864 59.83428 68.647214 C 48.36278 91.646354 -12.7098 117.30898 12.83428 120.14721 C 21.83428 121.14721 26.15493 124.21771 29.83428 131.14721 C 37.41059 145.41604 8.8342799 171.64721 8.8342799 171.64721 Z"/>
    </g>
</svg>
