<svg width="48" height="48" viewBox="0 0 48 48" xmlns="http://www.w3.org/2000/svg" xmlns:usvg="https://github.com/RazrFalcon/usvg" usvg:version="0.8.0">
    <defs>
        <radialGradient id="rg1" cx="15.115" cy="63.965" r="12.289" fx="15.115" fy="63.965" gradientUnits="userSpaceOnUse" gradientTransform="matrix(1.6 0 0 0.551754 -0.183975 4.83575)">
            <stop offset="0" stop-color="#000000"/>
            <stop offset="1" stop-color="#000000" stop-opacity="0"/>
        </radialGradient>
        <linearGradient id="lg8" x1="119.191" y1="89.13" x2="116.965" y2="169.279" gradientUnits="userSpaceOnUse" gradientTransform="matrix(0.353878 0 0 0.353878 -16.3897 -17.997)">
            <stop offset="0" stop-color="#ffe253"/>
            <stop offset="1" stop-color="#ffca1c"/>
        </linearGradient>
        <linearGradient id="lg7" x1="94.693" y1="112.511" x2="94.693" y2="64.053" gradientUnits="userSpaceOnUse" gradientTransform="matrix(0.353878 0 0 0.353878 -6.29697 -7.94537)">
            <stop offset="0" stop-color="#ffffff"/>
            <stop offset="1" stop-color="#ffffff" stop-opacity="0.165"/>
        </linearGradient>
        <linearGradient id="lg6" x1="59.728" y1="102" x2="142.62" y2="102" gradientUnits="userSpaceOnUse" gradientTransform="matrix(0.353878 0 0 0.353878 -17.3795 -19.412)">
            <stop offset="0" stop-color="#3778ae"/>
            <stop offset="1" stop-color="#366c99"/>
        </linearGradient>
        <linearGradient id="lg5" x1="94.693" y1="112.511" x2="94.693" y2="64.053" gradientUnits="userSpaceOnUse" gradientTransform="matrix(0.353878 0 0 0.353878 -17.3795 -19.412)">
            <stop offset="0" stop-color="#ffffff"/>
            <stop offset="1" stop-color="#ffffff" stop-opacity="0.165"/>
        </linearGradient>
    </defs>
    <path fill="url(#rg1)" d="M 43.6618 40.1289 C 43.6618 43.87366674623 34.85891229422 46.9094 24 46.9094 C 13.14108770578 46.9094 4.3382 43.87366674623 4.3382 40.1289 C 4.3382 36.38413325377 13.14108770578 33.3484 24 33.3484 C 34.85891229422 33.3484 43.6618 36.38413325377 43.6618 40.1289 Z"/>
    <path fill="url(#lg8)" d="M 34.0804 37.5795 C 34.0804 40.3114 31.7094 41.6951 29.303 42.3852 C 25.6828 43.4256 22.7775 43.2663 19.7519 42.3852 C 17.2251 41.649 14.9745 40.145 14.9745 37.5795 L 14.9745 28.5663 C 14.9745 25.9723 17.1366 23.7571 19.7519 23.7571 L 29.1503 23.146 C 32.3317 23.146 34.4109 21.1602 34.4109 17.901 L 35.2764 13.5441 L 38.8577 13.5441 C 41.6391 13.5441 42.9486 15.6108 43.6351 18.3497 C 44.5906 22.154 44.6329 24.9992 43.6351 27.9647 C 42.669 30.8452 41.6351 32.7703 38.8577 32.7703 L 34.0804 32.7703 L 24.5292 32.7703 L 24.5292 32.7503 C 32.7716 32.7703 34.0804 29.4339 34.0804 37.5784 Z"/>
    <path fill="#ffffff" d="M 28.1104 38.1776 C 28.1104 37.1832 28.9137 36.3763 29.901 36.3763 C 30.901 36.3763 31.6916 37.1832 31.6916 38.1776 C 31.6916 39.1755 30.8919 39.9823 29.901 39.9823 C 28.9137 39.9823 28.1104 39.1755 28.1104 38.1776 Z"/>
    <g opacity="0.837">
        <path fill="url(#lg7)" d="M 35.2662 13.5436 L 35.2662 17.7701 C 31.8551 23.767 25.375 23.7787 19.939 23.7787 L 17.922 23.9839 C 15.0878 26.4203 14.9976 30.3302 14.9997 33.7595 C 21.2499 26.7853 27.9171 26.2591 31.2433 26.2741 C 37.881 26.3031 41.0071 24.6712 44.1772 21.0802 C 44.1612 21.0102 44.1932 20.9482 44.1772 20.8765 C 44.055 20.0765 43.841 19.2221 43.6171 18.3305 C 43.2953 17.0466 42.8743 15.9164 42.1914 15.0716 C 42.1754 15.0556 42.1534 15.0376 42.1404 15.0216 C 42.1404 15.0216 42.0984 15.0216 42.0904 15.0216 C 42.0674 14.9936 42.0624 14.9466 42.0404 14.9205 C 41.9934 14.8865 41.9884 14.8505 41.9394 14.8195 C 41.9234 14.8035 41.9004 14.8355 41.8894 14.8195 C 41.1653 14.3502 40.2858 14 39.3942 13.8519 C 38.5861 13.7183 37.775 13.6165 36.95 13.5464 L 36.4408 13.5464 L 35.2697 13.5464 Z"/>
    </g>
    <path fill="none" stroke="#bb9400" stroke-width="1.63" d="M 34.559 37.579 C 34.559 40.311 31.7093 41.695 29.303 42.385 C 25.683 43.425 22.778 43.266 19.752 42.385 C 17.225 41.649 14.951 40.145 14.947 37.58 L 14.931 28.322 C 14.921 25.249 17.233 23.312 19.78 23.322 L 28.2467 23.337 C 31.4967 23.337 34.6567 20.037 34.6477 16.787 L 34.6477 13.55 L 38.8577 13.55 C 41.6391 13.55 42.9477 15.617 43.6347 18.356 C 44.5907 22.16 44.6347 25.005 43.6347 27.971 C 42.6687 30.851 41.6347 33.1186 38.8577 33.119 L 34.5577 33.119 L 24.5277 33.119 L 24.5277 33.099 L 34.5577 33.133 Z"/>
    <g opacity="0.384">
        <path fill="#ffffff" d="M 35.4653 14.3584 L 35.4653 16.7517 C 35.4653 20.4762 31.9688 24.1274 27.9844 24.1274 L 19.7353 24.1274 C 16.8847 24.1274 15.7169 26.2843 15.7311 28.5653 L 15.7871 37.5782 C 15.7971 38.6228 16.1871 39.4017 16.9351 40.0733 C 17.6831 40.7448 18.8077 41.2563 19.9904 41.601 C 22.9068 42.4502 25.5664 42.6032 29.0542 41.601 C 30.1869 41.2762 31.6936 40.6609 32.4518 40.0046 C 33.2099 39.3481 33.7595 38.7085 33.7595 37.5782 L 33.7595 33.9484 L 23.7075 33.9484 L 23.7075 32.2689 L 38.8818 32.3189 C 40.0826 32.3189 40.6698 31.8465 41.2662 31.1556 C 41.8626 30.4646 42.3811 29.1087 42.8536 27.6996 C 43.7992 24.89 43.7872 22.2505 42.8536 18.5338 C 42.5284 17.236 42.056 16.1877 41.4279 15.4786 C 40.7999 14.7695 40.0709 14.3584 38.8818 14.3584 Z M 37.0947 15.9878 L 38.8814 15.9878 C 39.4016 15.9878 40.0807 16.4072 40.2054 16.548 C 40.5679 16.9573 40.9854 17.7866 41.2748 18.9412 C 42.1643 22.4828 42.1663 24.6927 41.3248 27.1903 C 40.8731 28.5373 40.4043 29.8045 40.0519 30.1903 C 39.7335 30.5298 39.0519 30.6996 38.8806 30.6996 L 34.0941 30.6486 L 22.0768 30.6486 L 22.0768 35.587 L 32.1288 35.587 L 32.1288 37.587 C 32.1288 38.314 31.1555 38.7659 30.988 38.9109 C 30.5008 39.3328 29.6372 39.7468 28.6457 40.0311 C 25.4227 40.9575 23.1457 40.817 20.4473 40.0311 C 19.4262 39.7336 18.5412 39.2972 18.0404 38.8716 C 17.5396 38.446 17.5088 38.0975 17.4166 37.5866 L 17.3606 28.5737 C 17.3476 26.5513 18.0063 25.7653 19.7354 25.7653 L 27.9845 25.7653 C 32.9078 25.7653 37.0948 21.4151 37.0948 16.7601 C 37.0949 16.5027 37.0947 16.2452 37.0947 15.9878 Z"/>
    </g>
    <path fill="url(#lg6)" d="M 13.9847 7.3199 C 13.9847 4.588 14.7171 3.1017 18.7619 2.3939 C 21.5081 1.9126 25.0292 1.8525 28.3132 2.3939 C 30.9071 2.8221 33.0906 4.7543 33.0906 7.3199 L 33.0906 16.3333 C 33.0906 18.9767 30.9708 21.1424 28.3132 21.1424 L 19.6511 21.6212 C 16.4097 21.6212 13.0621 24.4533 13.0621 27.5782 L 12.7885 31.3552 L 9.5045 31.3552 C 6.7266 31.3552 5.1094 29.3523 4.43 26.5496 C 3.5134 22.7845 3.5524 20.5408 4.43 16.9349 C 5.1908 13.7888 7.622 12.1291 10.13 12.1291 L 13.7148 12.1291 C 13.7148 12.1291 22.6596 12.0941 13.7148 12.0971 L 13.7148 7.32 L 13.7148 7.32 Z"/>
    <path fill="#ffffff" d="M 16.3733 6.7218 C 16.3733 5.7218 17.1733 4.917 18.1639 4.917 C 19.1512 4.917 19.9546 5.7238 19.9546 6.7218 C 19.9546 7.7162 19.1512 8.523 18.1639 8.523 C 17.1731 8.523 16.3733 7.7162 16.3733 6.7218 Z"/>
    <g opacity="0.377">
        <path fill="url(#lg5)" d="M 22.7173 1.9955 C 21.3039 2.0297 19.9469 2.1923 18.7455 2.4028 C 14.7007 3.1106 14.01 4.6102 14.01 7.3421 L 13.7148 12.1291 L 10.3945 12.1288 C 7.6166 12.1288 5.1977 13.7694 4.4369 16.9152 C 3.9204 19.0377 3.6865 20.6994 3.7748 22.4656 C 10.0672 15.3337 16.819 14.8125 20.1713 14.8276 C 26.8089 14.8566 29.935 13.2247 33.1051 9.6337 L 33.1051 7.3423 C 33.1051 4.7768 30.9125 2.8313 28.3186 2.4031 C 26.4714 2.0983 24.5345 1.9515 22.7173 1.9955 Z"/>
    </g>
    <path fill="none" stroke="#274e70" stroke-width="1.63" d="M 18.696 2.6271 C 22.3161 1.5867 25.2215 1.746 28.247 2.6271 C 30.7738 3.3632 33.0257 4.8671 33.0244 7.4328 L 33.0244 17.1643 C 33.0244 18.5305 31.0498 21.6936 28.2518 21.6936 L 19.353 21.6936 C 16.8547 21.6936 13.356 24.4153 13.356 27.6746 L 13.356 31.4683 L 9.146 31.4683 C 6.3645 31.4683 5.0551 29.4016 4.3686 26.6625 C 3.4131 22.8584 3.3686 20.0132 4.3686 17.0477 C 5.3347 14.1671 6.3686 11.9 9.146 11.9 L 13.4445 11.9 L 23.4745 11.9 L 23.4745 11.919 L 13.4445 11.885 L 13.4635 7.0117 C 13.4375 5.0152 15.8781 3.4593 18.6958 2.6272 Z"/>
    <g opacity="0.165">
        <path fill="#ffffff" d="M 12.5337 30.6538 L 12.5337 27.8578 C 12.5337 24.1332 15.929 20.8291 19.5798 20.8291 L 28.2637 20.8291 C 30.4186 20.8291 32.2877 18.588 32.2679 16.447 L 32.1845 7.434 C 32.1748 6.3895 31.8123 5.6105 31.0642 4.9389 C 30.3163 4.2673 29.1916 3.7558 28.009 3.4113 C 25.0924 2.5619 22.4328 2.409 18.9451 3.4113 C 17.8125 3.7361 16.3055 4.3513 15.5475 5.0077 C 14.7893 5.6641 14.2399 6.3037 14.2399 7.434 L 14.2399 11.0638 L 24.2918 11.0638 L 24.2918 12.7442 L 9.1175 12.6932 C 7.9175 12.6932 7.3295 13.1656 6.7331 13.8566 C 6.1367 14.5474 5.6182 15.9033 5.1457 17.3125 C 4.2001 20.1221 4.2122 22.7615 5.1457 26.4782 C 5.4709 27.776 5.9433 28.8243 6.5715 29.5334 C 7.1995 30.2426 7.9285 30.6537 9.1175 30.6537 L 12.5337 30.6537 Z M 10.9042 29.0243 L 9.1175 29.0243 C 8.5975 29.0243 7.9175 28.6049 7.7936 28.4643 C 7.431 28.0549 7.0135 27.2255 6.7241 26.0709 C 5.8346 22.5294 5.8327 20.3196 6.6736 17.8218 C 7.1253 16.475 7.5941 15.2077 7.9466 14.8319 C 8.265 14.4926 8.9375 14.3227 9.1178 14.3227 L 25.9216 14.3737 L 25.9216 9.4343 L 15.8697 9.4343 L 15.8697 7.4343 C 15.8697 6.7073 16.8429 6.2554 17.0104 6.1104 C 17.4977 5.6885 18.3613 5.2745 19.3528 4.9904 C 22.5757 4.0642 24.8528 4.2046 27.5511 4.9904 C 28.5723 5.2879 29.4572 5.7243 29.9443 6.1616 C 30.1176 6.2968 30.2089 6.4589 30.3521 6.6198 C 30.5508 6.8568 30.5073 7.17003 30.5532 7.4345 L 30.5532 16.4475 C 30.5532 17.6832 29.4967 19.2002 28.2619 19.2002 L 19.578 19.2002 C 14.9883 19.2002 10.9024 23.2031 10.9024 27.8583 C 10.9024 28.2458 10.9024 29.0243 10.9024 29.0243 Z"/>
    </g>
</svg>
